<svg xmlns="http://www.w3.org/2000/svg" width="25" height="25" viewBox="0 0 25 25">
  <g id="context_filter" transform="translate(4.5 -1031.87)">
    <circle id="Ellipse_45" data-name="Ellipse 45" cx="12.5" cy="12.5" r="12.5" transform="translate(-4.5 1031.87)" fill="#b5b129"/>
    <path id="Path_502" data-name="Path 502" d="M3.5,3,3.451,3h0a.5.5,0,0,0-.217.938l.006,0L7.021,7.729V12a.5.5,0,0,0,.275.445l1.979,1A.5.5,0,0,0,10,13V7.707l3.82-3.818a.5.5,0,0,0,.063-.711l0,0a.5.5,0,0,0-.154-.119l0,0-.043-.018,0,0-.043-.016h0l-.045-.01h0L13.533,3l-.047,0-.025,0H3.551L3.5,3ZM4.709,4h7.584L9.2,7.094a.5.5,0,0,0-.145.271A.5.5,0,0,0,9,7.6v4.588l-.98-.5V7.605a.5.5,0,0,0-.09-.291A.5.5,0,0,0,7.8,7.094Z" transform="translate(-0.489 1036.87)" fill="#fff" fill-rule="evenodd"/>
  </g>
</svg>
