<svg xmlns="http://www.w3.org/2000/svg" width="59.707" height="59.414" viewBox="0 0 59.707 59.414">
  <path id="context_sort_descend" d="M59,69.414a1,1,0,1,1,1-1A1,1,0,0,1,59,69.414Zm-49-1v-2h5v2Zm49-5a1,1,0,1,1,1-1A1,1,0,0,1,59,63.414Zm-49-3v-2h9v2Zm49-2a1,1,0,1,1,1-1A1,1,0,0,1,59,58.414Zm0-4a1,1,0,1,1,1-1A1,1,0,0,1,59,54.414Zm-49-2v-2H23v2Zm48.984-1.986A1,1,0,0,1,58,49.414V13.828l-8.293,8.293-1.414-1.414,9.912-9.912A1,1,0,0,1,58.4,10.6L59,10l.607.607a1,1,0,0,1,.189.189l9.91,9.91-1.414,1.414L60,13.828V49.414a1,1,0,0,1-1.016,1.014ZM10,44.414v-2H27v2Zm0-8v-2H31v2Zm0-8v-2H35v2Zm0-8v-2H39v2Zm0-8v-2H43v2Z" transform="translate(-10 -10)" fill="#131d4a"/>
</svg>
