<svg xmlns="http://www.w3.org/2000/svg" xmlns:xlink="http://www.w3.org/1999/xlink" width="224" height="223.304" viewBox="0 0 224 223.304">
  <defs>
    <filter id="Path_503" x="0" y="0" width="224" height="223.304" filterUnits="userSpaceOnUse">
      <feOffset dy="5" input="SourceAlpha"/>
      <feGaussianBlur stdDeviation="4" result="blur"/>
      <feFlood flood-opacity="0.078"/>
      <feComposite operator="in" in2="blur"/>
      <feComposite in="SourceGraphic"/>
    </filter>
  </defs>
  <g id="context_contact" transform="translate(1)">
    <g id="icons" transform="translate(11 7)">
      <g id="contacts" transform="translate(0 0)">
        <g id="Group_280" data-name="Group 280">
          <g transform="matrix(1, 0, 0, 1, -12, -7)" filter="url(#Path_503)">
            <path id="Path_503-2" data-name="Path 503" d="M4.3,59.32C11.069,26.7,31.886,8.535,64.356,3.047a210.188,210.188,0,0,1,71.979.114c33.433,5.889,53.532,25.116,59.935,58.226a198.637,198.637,0,0,1-.078,77.016c-6.845,32.392-28.2,52.386-60.549,57.854a210.211,210.211,0,0,1-71.979-.114c-33.433-5.89-53.621-26.076-60.024-59.186-5.2-25.758-4.7-51.783.663-77.638Z" transform="translate(12 7)"/>
          </g>
          <path id="Path_504" data-name="Path 504" d="M4.3,59.32C11.069,26.7,31.886,8.535,64.356,3.047a210.188,210.188,0,0,1,71.979.114c33.433,5.889,53.532,25.116,59.935,58.226a198.637,198.637,0,0,1-.078,77.016c-6.845,32.392-28.2,52.386-60.549,57.854a210.211,210.211,0,0,1-71.979-.114c-33.433-5.89-53.621-26.076-60.024-59.186-5.2-25.758-4.7-51.783.663-77.638Z" transform="translate(0 0)" fill="#ff9d17"/>
        </g>
        <path id="Path_505" data-name="Path 505" d="M185.945,151.994c-4.7,13.133-15.757,22.354-28.646,22.354a26.974,26.974,0,0,1-11.37-2.522A43.824,43.824,0,0,1,102,193.177V184.7a35.4,35.4,0,0,0,36.9-17.442,36.271,36.271,0,0,1-10.2-15.125c-7.484-.945-13.311-10.284-13.311-19.326,0-5.332,2.318-6.419,5.515-9.634a55.085,55.085,0,0,1-1.152-9.664c0-35.864,39.863-41.728,41.5-41.5v8.855c-1.587-.267-34.049,3.707-34.049,34.119,0,2.163.242,10.967.688,13-3.086,1.276-5.518-.314-5.518,3.948,0,7.228,5.352,13.528,11.334,14.284,3.782,10.438,13.239,20.978,23.5,20.978,10.3,0,19.784-10.927,23.544-21.424,5.646-1.108,10.645-6.89,10.645-13.837,0-4.723-2.755-4.178-6.38-4.736.341-1.784.526-10.323.526-12.207a29.154,29.154,0,0,0-14.469-25.193V80.167a36.5,36.5,0,0,1,21.663,33.344,54.953,54.953,0,0,1-1.117,8.429c3.813,3.176,6.762,3.917,6.762,9.826,0,8.691-5.384,18.841-12.447,20.227Zm18.837,33.237a35.6,35.6,0,0,0,6.068-.529v8.475a44.2,44.2,0,0,1-6.068.42,43.67,43.67,0,0,1-31.349-13.217c.121-.123,4.523-3.63,6.307-5.53A35.311,35.311,0,0,0,204.782,185.23Z" transform="translate(-56.441 -39.841)" fill="#fff" fill-rule="evenodd"/>
      </g>
    </g>
  </g>
</svg>
