<svg xmlns="http://www.w3.org/2000/svg" width="64" height="62.04" viewBox="0 0 64 62.04">
  <g id="context_add" transform="translate(0 -0.98)">
    <path id="Path_499" data-name="Path 499" d="M50.1,35.21a13.9,13.9,0,0,0,0,27.81h1.55a1.855,1.855,0,0,0,.85-.18,1.139,1.139,0,0,1,.22-.07A13.905,13.905,0,0,0,50.1,35.21Zm4.24,14.94H50.73v3.61a1.03,1.03,0,1,1-2.06,0V50.15H45.06a1.03,1.03,0,1,1,0-2.06h3.61V44.48a1.03,1.03,0,0,1,2.06,0v3.61h3.61a1.03,1.03,0,0,1,0,2.06ZM1.03,20.28H52.78a1.029,1.029,0,0,0,1.03-1.03V2.01A1.029,1.029,0,0,0,52.78.98H1.03A1.035,1.035,0,0,0,0,2.01V19.25A1.029,1.029,0,0,0,1.03,20.28ZM7.71,9.6H11.5a1.03,1.03,0,0,1,0,2.06H7.71a1.03,1.03,0,0,1,0-2.06Zm0,4.39H11.5a1.03,1.03,0,0,1,0,2.06H7.71a1.03,1.03,0,0,1,0-2.06Z" fill="#507df0"/>
    <path id="Path_500" data-name="Path 500" d="M2.15,41.65H35.99A15.968,15.968,0,0,1,50.1,33.14a15.636,15.636,0,0,1,3.71.44V24.5a2.183,2.183,0,0,0-1.94-2.15,1.548,1.548,0,0,0-.22-.01H2.15a1.7,1.7,0,0,0-.22.01A2.159,2.159,0,0,0,0,24.5v15A2.153,2.153,0,0,0,2.15,41.65Zm9.35-4.7H7.71a1.03,1.03,0,1,1,0-2.06H11.5a1.03,1.03,0,1,1,0,2.06Zm0-4.77H7.71a1.03,1.03,0,0,1,0-2.06H11.5a1.03,1.03,0,0,1,0,2.06ZM34.13,49.11a15.838,15.838,0,0,1,.94-5.4H2.15A2.16,2.16,0,0,0,0,45.86V60.87a2.147,2.147,0,0,0,2.15,2.15H42.26A15.974,15.974,0,0,1,34.13,49.11ZM11.5,57.65H7.71a1.03,1.03,0,1,1,0-2.06H11.5a1.03,1.03,0,1,1,0,2.06Zm0-4.18H7.71a1.03,1.03,0,1,1,0-2.06H11.5a1.03,1.03,0,1,1,0,2.06Z" fill="#507df0"/>
  </g>
</svg>
