<svg xmlns="http://www.w3.org/2000/svg" xmlns:xlink="http://www.w3.org/1999/xlink" width="25" height="25" viewBox="0 0 25 25"><defs><linearGradient id="a"><stop offset="0" stop-color="#24f7bc"/><stop offset="1" stop-color="#24c4fc"/></linearGradient><linearGradient id="b" x1="949.87" x2="974.39" y1="518.014" y2="544.657" gradientTransform="translate(-762.465 618.831) scale(.80097)" gradientUnits="userSpaceOnUse" xlink:href="#a"/></defs><g fill="#fff" transform="translate(4.99 -1031.862)"><rect width="25" height="25" x="-4.989" y="1031.862" fill="url(#b)" rx="5.283" ry="5.283"/><path style="text-indent:0;text-align:start;line-height:normal;text-transform:none;block-progression:tb" d="m 0.0237,1036.8672 0,0.5 0,6.5 7,0 0,-2.9766 3.900391,0 c 0.13395,0 0.449887,0.099 0.685547,0.3184 0.23567,0.2196 0.414062,0.5275 0.414062,0.9902 l 0,0.7403 0,1.0488 -1.117188,-1.084 -0.695312,0.7188 2.3125,2.2441 2.314453,-2.2441 -0.697265,-0.7188 -1.117188,1.084 0,-1.0488 0,-0.7403 c 0,-0.7389 -0.319272,-1.3358 -0.732422,-1.7207 -0.41314,-0.385 -0.897427,-0.5879 -1.367187,-0.5879 l -3.900391,0 0,-3.0234 -7,0 z m 12.5,9 -3.5,0 0,0.5 0,2.4902 -3.9003906,0 c -0.13396,0 -0.4479338,-0.1007 -0.6835938,-0.3203 -0.23566,-0.2195 -0.4160156,-0.5276 -0.4160156,-0.9902 l 0,-0.7402 0,-1.0489 1.1171875,1.084 0.6972656,-0.7168 -2.3144531,-2.2461 -2.3125,2.2461 0.6972656,0.7168 1.1152344,-1.084 0,1.0489 0,0.7402 c 0,0.7389 0.321235,1.3377 0.734375,1.7226 0.41315,0.3849 0.8954644,0.5879 1.3652344,0.5879 l 3.9003906,0 0,3.0098 7,0 0,-7 -3.5,0 z m -11.5,-8 5,0 0,5 -5,0 0,-5 z m 9,9 5,0 0,5 -5,0 0,-5 z" color="#000" font-family="sans-serif" font-weight="400" overflow="visible"/></g></svg>