<svg xmlns="http://www.w3.org/2000/svg" width="59.707" height="59.414" viewBox="0 0 59.707 59.414">
  <path id="context_sort_ascend" d="M59,10a1,1,0,1,0,1,1A1,1,0,0,0,59,10ZM10,11v2h5V11Zm49,5a1,1,0,1,0,1,1A1,1,0,0,0,59,16ZM10,19v2h9V19Zm49,2a1,1,0,1,0,1,1A1,1,0,0,0,59,21Zm0,4a1,1,0,1,0,1,1A1,1,0,0,0,59,25ZM10,27v2H23V27Zm48.984,1.986A1,1,0,0,0,58,30V65.586l-8.293-8.293-1.414,1.414,9.912,9.912a1,1,0,0,0,.191.191l.6.6.607-.607a1,1,0,0,0,.189-.189l9.91-9.91-1.414-1.414L60,65.586V30a1,1,0,0,0-1.016-1.014ZM10,35v2H27V35Zm0,8v2H31V43Zm0,8v2H35V51Zm0,8v2H39V59Zm0,8v2H43V67Z" transform="translate(-10 -10)" fill="#131d4a"/>
</svg>
