<svg xmlns="http://www.w3.org/2000/svg" xmlns:xlink="http://www.w3.org/1999/xlink" width="25" height="25" viewBox="0 0 25 25"><defs><linearGradient id="a"><stop offset="0" stop-color="#16ff6a"/><stop offset="1" stop-color="#0090a5"/></linearGradient><linearGradient id="b" x1="1073.403" x2="1097.116" y1="516.451" y2="544.308" gradientTransform="translate(-860.683 618.831) scale(.80097)" gradientUnits="userSpaceOnUse" xlink:href="#a"/></defs><g fill="#fff" transform="translate(4.5 -1031.862)"><rect width="25" height="25" x="-4.5" y="1031.862" fill="url(#b)" rx="5.283" ry="5.283"/><path d="M 17 7 L 17 7.5 L 17 8.03125 C 15.877463 8.11625 14.844328 8.4784 13.90625 9 L 10 9 L 10 9.5 L 10 13 C 9.5883413 13.9271 9.5 14.9185 9.5 16 L 8.5 16 L 8.5 16.5 L 8.5 19 L 11.5 19 L 11.5 16 L 10.5 16 C 10.5 14.899 10.621443 13.9111 11.09375 13 L 14 13 L 14 10.09375 C 14.898174 9.53425 15.891833 9.12405 17 9.03125 L 17 10 L 20 10 L 20 7 L 17 7 z M 18 8 L 19 8 L 19 9 L 18 9 L 18 8.5 L 18 8 z M 11 10 L 13 10 L 13 12 L 11 12 L 11 10 z M 9.5 17 L 10.5 17 L 10.5 18 L 9.5 18 L 9.5 17 z " color="#000" font-family="sans-serif" font-weight="400" overflow="visible" transform="translate(-4.5 1031.862)" style="text-indent:0;text-align:start;line-height:normal;text-transform:none;block-progression:tb"/></g></svg>