<svg xmlns="http://www.w3.org/2000/svg" width="20" height="20.5" viewBox="0 0 20 20.5">
  <path id="filter" d="M19.634,0H1.357A.859.859,0,0,0,.592.466a.871.871,0,0,0,.068.906l6.7,9.432.007.01a1.913,1.913,0,0,1,.376,1.135v7.69a.855.855,0,0,0,.855.86.881.881,0,0,0,.337-.067L12.693,19a.815.815,0,0,0,.561-.8V11.949a1.913,1.913,0,0,1,.375-1.135l.007-.01,6.7-9.433A.87.87,0,0,0,20.4.466.859.859,0,0,0,19.634,0ZM12.79,10.2a2.962,2.962,0,0,0-.577,1.752v6.118L8.779,19.376V11.949A2.961,2.961,0,0,0,8.2,10.2L1.7,1.04H19.291Zm0,0" transform="translate(-0.496 0)" fill="#fff"/>
</svg>
