<svg xmlns="http://www.w3.org/2000/svg" xmlns:xlink="http://www.w3.org/1999/xlink" width="19" height="19" viewBox="0 0 19 19">
  <defs>
    <clipPath id="clip-path">
      <rect width="19" height="19" fill="none"/>
    </clipPath>
  </defs>
  <g id="notification" clip-path="url(#clip-path)">
    <path id="line" d="M18,16a10.241,10.241,0,0,1-3-7.241V8a6,6,0,0,0-4.034-5.664A2.057,2.057,0,0,0,11,2,2,2,0,0,0,7,2a2.057,2.057,0,0,0,.034.336A6,6,0,0,0,3,8v.758A10.241,10.241,0,0,1,0,16H18Z" transform="translate(0.5 0.5)" fill="none" stroke="#131d4a" stroke-linecap="round" stroke-linejoin="round" stroke-miterlimit="10" stroke-width="1"/>
    <path id="line-2" data-name="line" d="M0,0H0A2.006,2.006,0,0,0,2,2,2.006,2.006,0,0,0,4,0" transform="translate(7.5 16.5)" fill="none" stroke="#131d4a" stroke-linecap="round" stroke-linejoin="round" stroke-miterlimit="10" stroke-width="1"/>
  </g>
</svg>
