<svg xmlns="http://www.w3.org/2000/svg" width="44.341" height="49.28" viewBox="0 0 44.341 49.28">
  <path id="protection" d="M54.17,15.94a1.467,1.467,0,0,0-.45-1.06l-7.3-7.09a1.492,1.492,0,0,0-2.46.58c-.01.04-1.34,3.9-5.12,3.65a6.542,6.542,0,0,1-5.46-3.73,1.478,1.478,0,0,0-1.37-.92H32a1.509,1.509,0,0,0-1.38.91,6.525,6.525,0,0,1-5.46,3.74c-3.72.25-5.07-3.5-5.12-3.65a1.492,1.492,0,0,0-2.46-.58l-7.3,7.09a1.467,1.467,0,0,0-.45,1.06,1.442,1.442,0,0,0,.44,1.07c3.17,3.18,2.77,7.61.82,15.19-1.94,7.55.04,17.9,20.46,24.37a1.483,1.483,0,0,0,.9,0C52.87,50.1,54.85,39.75,52.91,32.2c-1.95-7.58-2.35-12.01.82-15.19a1.442,1.442,0,0,0,.44-1.07ZM33.5,33.34v6.13a1.5,1.5,0,1,1-3,0V33.34a4.28,4.28,0,1,1,3,0Zm-.22-4a1.282,1.282,0,1,1-.372-.911A1.28,1.28,0,0,1,33.28,29.34Z" transform="translate(-9.83 -7.36)" fill="#fff"/>
</svg>
