<svg xmlns="http://www.w3.org/2000/svg" width="40" height="40" viewBox="0 0 40 40">
  <path id="event" d="M2,37.714A4.209,4.209,0,0,0,6.286,42H37.714A4.209,4.209,0,0,0,42,37.714V16.286H2ZM37.714,4.857H36.286V3.429a1.429,1.429,0,0,0-2.857,0V4.857H27.714V3.429a1.429,1.429,0,0,0-2.857,0V4.857H19.143V3.429a1.429,1.429,0,0,0-2.857,0V4.857H10.571V3.429A1.35,1.35,0,0,0,9.143,2,1.35,1.35,0,0,0,7.714,3.429V4.857H6.286A4.209,4.209,0,0,0,2,9.143v4.286H42V9.143A4.209,4.209,0,0,0,37.714,4.857Zm-7.143,5.714H13.429A1.35,1.35,0,0,1,12,9.143a1.35,1.35,0,0,1,1.429-1.429H30.571A1.35,1.35,0,0,1,32,9.143,1.35,1.35,0,0,1,30.571,10.571Z" transform="translate(-2 -2)" fill="#fafafa"/>
</svg>
