<svg xmlns="http://www.w3.org/2000/svg" width="50" height="50" viewBox="0 0 50 50">
  <path id="chronometer" d="M34,9A24.992,24.992,0,0,0,17.232,52.53a27.408,27.408,0,0,1,33.53,0A24.988,24.988,0,0,0,34,9ZM48.72,24.128,51.89,22.3a1.221,1.221,0,0,1,1.22,2.116l-3.171,1.823a1.231,1.231,0,0,1-.61.159,1.219,1.219,0,0,1-.61-2.274ZM32.78,12.659a1.22,1.22,0,0,1,2.439,0v3.659a1.22,1.22,0,0,1-2.439,0ZM11.439,34a1.223,1.223,0,0,1,1.22-1.22h3.659a1.22,1.22,0,0,1,0,2.439H12.659A1.223,1.223,0,0,1,11.439,34Zm7.841,9.872L16.11,45.7a1.238,1.238,0,0,1-.61.165,1.222,1.222,0,0,1-.61-2.28l3.171-1.823a1.221,1.221,0,0,1,1.22,2.116Zm.445-18.079a1.218,1.218,0,0,1-1.055.61,1.231,1.231,0,0,1-.61-.159L14.89,24.421A1.221,1.221,0,1,1,16.11,22.3l3.171,1.823A1.222,1.222,0,0,1,19.726,25.793Zm6.067-6.067a1.215,1.215,0,0,1-1.665-.445L22.3,16.11a1.221,1.221,0,1,1,2.116-1.22l1.823,3.171A1.218,1.218,0,0,1,25.793,19.726Zm17.6,6.6-5.64,5.646a4.264,4.264,0,1,1-1.726-1.726l5.646-5.64a1.216,1.216,0,1,1,1.72,1.72ZM45.7,16.11,43.872,19.28a1.221,1.221,0,0,1-2.116-1.22l1.823-3.171A1.221,1.221,0,1,1,45.7,16.11Zm7.86,29.134a1.2,1.2,0,0,1-1.055.616,1.238,1.238,0,0,1-.61-.165L48.72,43.872a1.221,1.221,0,0,1,1.22-2.116l3.171,1.823A1.218,1.218,0,0,1,53.555,45.244ZM55.341,35.22H51.683a1.22,1.22,0,0,1,0-2.439h3.659a1.22,1.22,0,0,1,0,2.439Zm-6.762,18.72c.079.061.165.116.244.177a24.958,24.958,0,0,1-29.652.006c.1-.073.2-.146.3-.22a24.987,24.987,0,0,1,29.11.037ZM35.829,34A1.829,1.829,0,1,1,34,32.171,1.835,1.835,0,0,1,35.829,34Z" transform="translate(-9 -9)" fill="#fff"/>
</svg>
