<svg xmlns="http://www.w3.org/2000/svg" width="80" height="80" viewBox="0 0 80 80">
  <g id="Group_301" data-name="Group 301" transform="translate(-398 -813)">
    <path id="Path_526" data-name="Path 526" d="M40,0A40,40,0,1,1,0,40,40,40,0,0,1,40,0Z" transform="translate(398 813)" fill="rgba(87,177,234,0.43)"/>
    <path id="custom" d="M55.594,20.987l-18.183.025-5.121-17.4a2.4,2.4,0,0,0-4.61-.01l-5.2,17.408L4.41,20.988a2.4,2.4,0,0,0-1.633,4.171L16.528,37.845,12,55.383a2.4,2.4,0,0,0,3.7,2.575L30,48.011l14.305,9.947a2.4,2.4,0,0,0,3.7-2.575L43.476,37.845,57.228,25.158a2.4,2.4,0,0,0-1.633-4.171Z" transform="translate(407.998 823.112)" fill="#57b1ea"/>
  </g>
</svg>
