<svg xmlns="http://www.w3.org/2000/svg" width="100" height="40.7" viewBox="0 0 100 40.7">
  <g id="Group_282" data-name="Group 282" transform="translate(-14625.098 782.341)">
    <rect id="Rectangle_1638" data-name="Rectangle 1638" width="17.4" height="6.8" transform="translate(14703.798 -762.641)" fill="#3f3d56"/>
    <rect id="Rectangle_1639" data-name="Rectangle 1639" width="85.8" height="7.6" transform="translate(14633.797 -756.641)" fill="#3f3d56"/>
    <path id="Path_510" data-name="Path 510" d="M679.8,295.358H659.2v-25.9h15.4l5.2,13.063Z" transform="translate(14025.698 -1048.199)" fill="#d0cde1"/>
    <rect id="Rectangle_1640" data-name="Rectangle 1640" width="8.8" height="8.8" transform="translate(14688.098 -777.141)" fill="#fff"/>
    <path id="Path_511" data-name="Path 511" d="M743.518,288.552h-5.6v-8.8h2.4Z" transform="translate(13959.979 -1056.793)" fill="#fff"/>
    <rect id="Rectangle_1641" data-name="Rectangle 1641" width="2" height="3.8" transform="translate(14688.498 -763.341)" fill="#3f3d56"/>
    <path id="Path_512" data-name="Path 512" d="M748.212,313.661h.1a1.9,1.9,0,0,1,1.9,1.9h0a1.9,1.9,0,0,1-1.9,1.9h-.1Z" transform="translate(13951.386 -1085.102)" fill="#3f3d56"/>
    <path id="Path_513" data-name="Path 513" d="M297.7,403.278h.1a1.9,1.9,0,0,1,1.9,1.9h0a1.9,1.9,0,0,1-1.9,1.9h-.1Z" transform="translate(14327.495 -1159.919)" fill="#3f3d56"/>
    <path id="Path_514" data-name="Path 514" d="M881.082,543.192a9.9,9.9,0,0,1,7.691,3.829h3.909l-3.8-10.585-17.7-3.491.5,14.076h1.709A9.9,9.9,0,0,1,881.082,543.192Z" transform="translate(13832.415 -1299.861)" fill="#d0cde1"/>
    <circle id="Ellipse_46" data-name="Ellipse 46" cx="8.7" cy="8.7" r="8.7" transform="translate(14704.998 -759.041)" fill="#3f3d56"/>
    <circle id="Ellipse_47" data-name="Ellipse 47" cx="4.579" cy="4.579" r="4.579" transform="translate(14709.119 -754.92)" fill="#d0cde1"/>
    <circle id="Ellipse_48" data-name="Ellipse 48" cx="7.6" cy="7.6" r="7.6" transform="translate(14627.498 -756.941)" fill="#3f3d56"/>
    <circle id="Ellipse_49" data-name="Ellipse 49" cx="4" cy="4" r="4" transform="translate(14631.098 -753.341)" fill="#d0cde1"/>
    <rect id="Rectangle_1642" data-name="Rectangle 1642" width="4.2" height="30.3" transform="translate(14681.298 -782.341)" fill="#3f3d56"/>
    <rect id="Rectangle_1643" data-name="Rectangle 1643" width="60.4" height="1.8" transform="translate(14625.098 -757.541)" fill="#3f3d56"/>
    <rect id="Rectangle_1646" data-name="Rectangle 1646" width="2" height="0.8" transform="translate(14698.798 -767.841)" fill="#3f3d56"/>
    <path id="Path_517" data-name="Path 517" d="M0,0H.1A1.9,1.9,0,0,1,2,1.9H2A1.9,1.9,0,0,1,.1,3.8H0Z" transform="matrix(-0.935, 0.354, -0.354, -0.935, 14722.604, -759.718)" fill="#3f3d56"/>
  </g>
</svg>
