<svg xmlns="http://www.w3.org/2000/svg" width="80" height="80" viewBox="0 0 80 80">
  <g id="Group_305" data-name="Group 305" transform="translate(-1124 -785)">
    <path id="Path_529" data-name="Path 529" d="M40,0A40,40,0,1,1,0,40,40,40,0,0,1,40,0Z" transform="translate(1124 785)" fill="rgba(80,125,240,0.25)"/>
    <path id="add_2_" data-name="add(2)" d="M28,15H17V4a1,1,0,0,0-2,0V15H4a1,1,0,0,0,0,2H15V28a1,1,0,0,0,2,0V17H28a1,1,0,0,0,0-2Z" transform="translate(1148 809)" fill="#507df0"/>
  </g>
</svg>
