<svg xmlns="http://www.w3.org/2000/svg" width="150" height="82.748" viewBox="0 0 150 82.748">
  <g id="undraw_advanced_customization_58j6" transform="translate(0 0)">
    <rect id="Rectangle_1708" data-name="Rectangle 1708" width="96.826" height="0.32" transform="translate(53.174 82.06)" fill="#e6e6e6"/>
    <path id="Path_537" data-name="Path 537" d="M921.051,543.28c2.117,2.992,2.676,20.022,2.8,25.481,0,.123.006.24.008.35h5.358c.065-.116.126-.232.184-.35,3.176-6.269,1.414-13.785,1.321-14.165.241,1.195-.85,4.658-2.083,8.013C927.886,552.294,921.453,543.8,921.051,543.28Z" transform="translate(-794.762 -487.004)" fill="#e6e6e6"/>
    <path id="Path_538" data-name="Path 538" d="M138.275,206.51a7.75,7.75,0,0,1,0-15.5h70.535a7.75,7.75,0,0,1,0,15.5Z" transform="translate(-130.525 -191.01)" fill="#e6e6e6"/>
    <rect id="Rectangle_1709" data-name="Rectangle 1709" width="13.796" height="13.478" transform="translate(15.125 1.011)" fill="#fff"/>
    <path id="Path_539" data-name="Path 539" d="M583.052,197.338H575.92v13.478h7.132a6.739,6.739,0,1,0,0-13.478Z" transform="translate(-504.767 -196.327)" fill="#fff"/>
    <rect id="Rectangle_1710" data-name="Rectangle 1710" width="13.703" height="13.478" transform="translate(43.186 1.011)" fill="#fff"/>
    <rect id="Rectangle_1711" data-name="Rectangle 1711" width="13.815" height="13.478" transform="translate(29.146 1.011)" fill="#507df0"/>
    <rect id="Rectangle_1712" data-name="Rectangle 1712" width="13.815" height="13.478" transform="translate(57.113 1.011)" fill="#e6e6e6"/>
    <path id="Path_540" data-name="Path 540" d="M150.743,197.338h-7.151a6.739,6.739,0,1,0,0,13.478h7.151Z" transform="translate(-135.842 -196.327)" fill="#507df0"/>
    <path id="Path_541" data-name="Path 541" d="M35.539,36.93l-1.876-2.412,1.091-.849.888,1.142,3-3.168,1,.951Z" transform="translate(-28.285 -26.589)" fill="#fff"/>
    <path id="Path_542" data-name="Path 542" d="M208.494,36.93l-1.876-2.412,1.091-.849.888,1.142,3-3.168,1,.951Z" transform="translate(-173.61 -26.589)" fill="#fff"/>
    <rect id="Rectangle_1713" data-name="Rectangle 1713" width="0.88" height="5.913" transform="translate(61.51 5.97) rotate(-45)" fill="#fff"/>
    <rect id="Rectangle_1714" data-name="Rectangle 1714" width="5.913" height="0.88" transform="translate(61.73 9.529) rotate(-45)" fill="#fff"/>
    <path id="Path_543" data-name="Path 543" d="M246.949,222.281a4.043,4.043,0,1,1,4.043-4.043A4.043,4.043,0,0,1,246.949,222.281Zm0-7.188a3.145,3.145,0,1,0,3.145,3.145A3.145,3.145,0,0,0,246.949,215.093Z" transform="translate(-224.953 -210.491)" fill="#e6e6e6"/>
    <path id="Path_544" data-name="Path 544" d="M422.717,222.281a4.043,4.043,0,1,1,4.043-4.043A4.043,4.043,0,0,1,422.717,222.281Zm0-7.188a3.145,3.145,0,1,0,3.145,3.145A3.145,3.145,0,0,0,422.717,215.093Z" transform="translate(-372.641 -210.491)" fill="#e6e6e6"/>
    <path id="Path_545" data-name="Path 545" d="M597.781,222.281a4.043,4.043,0,1,1,4.043-4.043A4.044,4.044,0,0,1,597.781,222.281Zm0-7.188a3.145,3.145,0,1,0,3.145,3.145A3.145,3.145,0,0,0,597.781,215.093Z" transform="translate(-519.738 -210.491)" fill="#e6e6e6"/>
    <path id="Path_546" data-name="Path 546" d="M841.944,388.153l-1.7,4.735a1.653,1.653,0,0,0,.7,1.971h0a1.653,1.653,0,0,0,2.5-1.229l.539-4.8,4.08-13.487-3.513-1.7Z" transform="translate(-726.785 -344.47)" fill="#a0616a"/>
    <path id="Path_547" data-name="Path 547" d="M695.3,369.105h2.493V344.852l-5.667-.113Z" transform="translate(-581.558 -289.666)" fill="#a0616a"/>
    <path id="Path_548" data-name="Path 548" d="M625.776,369.105h2.493V344.852l-5.667-.113Z" transform="translate(-523.14 -289.666)" fill="#a0616a"/>
    <path id="Path_549" data-name="Path 549" d="M765.828,466.7l-6.46-.68-1.36-7.14-2.493,7.253-7.707-.793,3.173-12.013c5.8-3.942,11.31-3.855,16.547,0Z" transform="translate(-649.195 -408.967)" fill="#2f2e41"/>
    <path id="Path_550" data-name="Path 550" d="M748.9,674.984a2.025,2.025,0,0,1-2.281,2.258l-4.593-.623a1.57,1.57,0,0,1-1.31-1.79h0a1.57,1.57,0,0,1,1.552-1.331h.757l2.492-2.27c.025,1.546,1.163,1.2,3.045,1.052Z" transform="translate(-643.225 -594.511)" fill="#2f2e41"/>
    <path id="Path_551" data-name="Path 551" d="M818.428,674.984a2.025,2.025,0,0,1-2.281,2.258l-4.593-.623a1.57,1.57,0,0,1-1.309-1.79h0A1.57,1.57,0,0,1,811.8,673.5h.757l2.492-2.27c.025,1.546,1.163,1.2,3.045,1.052Z" transform="translate(-701.642 -594.511)" fill="#2f2e41"/>
    <circle id="Ellipse_66" data-name="Ellipse 66" cx="3.995" cy="3.995" r="3.995" transform="translate(103.939 8.494)" fill="#a0616a"/>
    <path id="Path_552" data-name="Path 552" d="M681.151,91l-4.987.453v-4.42l2.607-1.587Z" transform="translate(-568.146 -71.795)" fill="#a0616a"/>
    <path id="Path_553" data-name="Path 553" d="M781.8,326.751c-5.017-3.673-11.04-3.3-17.68-.453,3.008-8.516,4.289-16.452,1.927-23.166a5.341,5.341,0,0,1,4.018-5.175l.856-.219,4.193.227,3.938,2.308a5.361,5.361,0,0,1,2.65,4.6Z" transform="translate(-662.905 -280.688)" fill="#507df0"/>
    <path id="Path_554" data-name="Path 554" d="M744.044,382.477l-1.7,4.735a1.653,1.653,0,0,0,.7,1.972h0a1.653,1.653,0,0,0,2.5-1.229l.539-4.8,4.08-13.487-3.513-1.7Z" transform="translate(-644.524 -339.701)" fill="#a0616a"/>
    <path id="Path_555" data-name="Path 555" d="M866.159,329.074h-5.553v-13.6h0a7.661,7.661,0,0,1,3.778,5.126Z" transform="translate(-743.973 -295.59)" fill="#507df0"/>
    <path id="Path_556" data-name="Path 556" d="M776.064,237.482a1.627,1.627,0,0,1-1.544-.084,1.231,1.231,0,0,1-.491-1.411,1.944,1.944,0,0,1,1.008-.916,10.176,10.176,0,0,1,2.9-.969,2.714,2.714,0,0,1,1.447.049c.225.088.427.228.651.32a7.317,7.317,0,0,0,1.3.262,3.183,3.183,0,0,1,2.114,1.584,3.838,3.838,0,0,1,.327.859,4.943,4.943,0,0,1-.008,2.488c-.342,1.291-1.213,2.478-1.134,3.811-.644-.375-.945-1.138-1.483-1.654a2.441,2.441,0,0,0-1.467-.664.775.775,0,0,1-.428-.109.668.668,0,0,1-.186-.337l-.605-1.9a1.7,1.7,0,0,0-.62-1.012,1.561,1.561,0,0,0-.693-.168,10.552,10.552,0,0,0-1.73.016" transform="translate(-671.176 -227.157)" fill="#2f2e41"/>
    <path id="Path_557" data-name="Path 557" d="M761.362,312.87l-6.46-2.493,2.934-7.9a5.1,5.1,0,0,1,4.433-3.315h0Z" transform="translate(-655.156 -281.88)" fill="#507df0"/>
  </g>
</svg>
