<svg id="undraw_server_cluster_jwwq_1_" data-name="undraw_server_cluster_jwwq(1)" xmlns="http://www.w3.org/2000/svg" width="150" height="120.069" viewBox="0 0 150 120.069">
  <path id="Path_535" data-name="Path 535" d="M384.781,267.113a43.93,43.93,0,1,1,31.063-12.867A43.93,43.93,0,0,1,384.781,267.113Zm0-87.522a43.592,43.592,0,1,0,43.592,43.592A43.641,43.641,0,0,0,384.781,179.591Z" transform="translate(-309.623 -164.95)" fill="#ccc"/>
  <rect id="Rectangle_1662" data-name="Rectangle 1662" width="44.257" height="32.939" transform="translate(91.47 64.494) rotate(90)" fill="#2f2e41"/>
  <rect id="Rectangle_1663" data-name="Rectangle 1663" width="44.257" height="17.568" transform="translate(52.872 63.143)" fill="#3f3d56"/>
  <rect id="Rectangle_1664" data-name="Rectangle 1664" width="44.257" height="17.568" transform="translate(52.872 82.738)" fill="#3f3d56"/>
  <rect id="Rectangle_1665" data-name="Rectangle 1665" width="44.257" height="17.568" transform="translate(52.872 102.332)" fill="#3f3d56"/>
  <rect id="Rectangle_1666" data-name="Rectangle 1666" width="44.257" height="2.703" transform="translate(52.872 70.592)" fill="#507df0"/>
  <rect id="Rectangle_1667" data-name="Rectangle 1667" width="44.257" height="2.703" transform="translate(52.872 90.186)" fill="#507df0"/>
  <rect id="Rectangle_1668" data-name="Rectangle 1668" width="44.257" height="2.703" transform="translate(52.872 109.781)" fill="#507df0"/>
  <circle id="Ellipse_52" data-name="Ellipse 52" cx="1.014" cy="1.014" r="1.014" transform="translate(87.5 64.663)" fill="#507df0"/>
  <circle id="Ellipse_53" data-name="Ellipse 53" cx="1.014" cy="1.014" r="1.014" transform="translate(91.047 64.663)" fill="#507df0"/>
  <circle id="Ellipse_54" data-name="Ellipse 54" cx="1.014" cy="1.014" r="1.014" transform="translate(94.595 64.663)" fill="#507df0"/>
  <circle id="Ellipse_55" data-name="Ellipse 55" cx="1.014" cy="1.014" r="1.014" transform="translate(87.5 83.92)" fill="#507df0"/>
  <circle id="Ellipse_56" data-name="Ellipse 56" cx="1.014" cy="1.014" r="1.014" transform="translate(91.047 83.92)" fill="#507df0"/>
  <circle id="Ellipse_57" data-name="Ellipse 57" cx="1.014" cy="1.014" r="1.014" transform="translate(94.595 83.92)" fill="#507df0"/>
  <circle id="Ellipse_58" data-name="Ellipse 58" cx="1.014" cy="1.014" r="1.014" transform="translate(87.5 103.177)" fill="#507df0"/>
  <circle id="Ellipse_59" data-name="Ellipse 59" cx="1.014" cy="1.014" r="1.014" transform="translate(91.047 103.177)" fill="#507df0"/>
  <circle id="Ellipse_60" data-name="Ellipse 60" cx="1.014" cy="1.014" r="1.014" transform="translate(94.595 103.177)" fill="#507df0"/>
  <rect id="Rectangle_1669" data-name="Rectangle 1669" width="150" height="0.338" transform="translate(0 119.731)" fill="#3f3d56"/>
  <path id="Path_536" data-name="Path 536" d="M313.417,353.467v31.417a2.479,2.479,0,0,1-2.478,2.478h-12.21a2.479,2.479,0,0,1-2.479-2.479V353.467a2.479,2.479,0,0,1,2.479-2.478h1.481a1.179,1.179,0,0,0,1.09,1.623h6.961a1.179,1.179,0,0,0,1.09-1.623h1.586a2.479,2.479,0,0,1,2.478,2.478Z" transform="translate(-272.559 -307.679)" fill="#e6e6e6"/>
  <rect id="Rectangle_1670" data-name="Rectangle 1670" width="15.541" height="21.622" transform="translate(24.504 49.309)" fill="#fff"/>
  <rect id="Rectangle_1671" data-name="Rectangle 1671" width="6.203" height="0.354" transform="translate(28.916 64.177)" fill="#e6e6e6"/>
  <rect id="Rectangle_1672" data-name="Rectangle 1672" width="9.598" height="0.354" transform="translate(28.91 65.478)" fill="#507df0"/>
  <rect id="Rectangle_1673" data-name="Rectangle 1673" width="7.532" height="0.354" transform="translate(28.91 66.704)" fill="#e6e6e6"/>
  <rect id="Rectangle_1674" data-name="Rectangle 1674" width="4.43" height="0.354" transform="translate(28.91 67.931)" fill="#e6e6e6"/>
  <rect id="Rectangle_1675" data-name="Rectangle 1675" width="6.646" height="0.354" transform="translate(28.91 69.157)" fill="#e6e6e6"/>
  <rect id="Rectangle_1676" data-name="Rectangle 1676" width="0.709" height="0.709" transform="translate(26.104 64.075)" fill="#e6e6e6"/>
  <rect id="Rectangle_1677" data-name="Rectangle 1677" width="0.709" height="0.709" transform="translate(26.104 65.301)" fill="#507df0"/>
  <rect id="Rectangle_1678" data-name="Rectangle 1678" width="0.709" height="0.709" transform="translate(26.104 66.527)" fill="#e6e6e6"/>
  <rect id="Rectangle_1679" data-name="Rectangle 1679" width="0.709" height="0.709" transform="translate(26.104 67.753)" fill="#e6e6e6"/>
  <rect id="Rectangle_1680" data-name="Rectangle 1680" width="0.709" height="0.709" transform="translate(26.104 68.979)" fill="#e6e6e6"/>
  <rect id="Rectangle_1681" data-name="Rectangle 1681" width="6.25" height="6.25" transform="translate(29.181 52.012)" fill="#e6e6e6"/>
  <rect id="Rectangle_1682" data-name="Rectangle 1682" width="41.534" height="26.6" transform="translate(54.242 0.024)" fill="#e6e6e6"/>
  <rect id="Rectangle_1683" data-name="Rectangle 1683" width="34.436" height="13.013" transform="translate(57.373 7.465)" fill="#fff"/>
  <rect id="Rectangle_1684" data-name="Rectangle 1684" width="8.265" height="0.472" transform="translate(63.647 9.72)" fill="#e6e6e6"/>
  <rect id="Rectangle_1685" data-name="Rectangle 1685" width="12.788" height="0.472" transform="translate(63.639 11.454)" fill="#507df0"/>
  <rect id="Rectangle_1686" data-name="Rectangle 1686" width="10.036" height="0.472" transform="translate(63.639 13.088)" fill="#e6e6e6"/>
  <rect id="Rectangle_1687" data-name="Rectangle 1687" width="5.903" height="0.472" transform="translate(63.639 14.721)" fill="#e6e6e6"/>
  <rect id="Rectangle_1688" data-name="Rectangle 1688" width="8.855" height="0.472" transform="translate(63.639 16.355)" fill="#e6e6e6"/>
  <rect id="Rectangle_1689" data-name="Rectangle 1689" width="0.945" height="0.945" transform="translate(59.899 9.584)" fill="#e6e6e6"/>
  <rect id="Rectangle_1690" data-name="Rectangle 1690" width="0.945" height="0.945" transform="translate(59.899 11.218)" fill="#507df0"/>
  <rect id="Rectangle_1691" data-name="Rectangle 1691" width="0.945" height="0.945" transform="translate(59.899 12.852)" fill="#e6e6e6"/>
  <rect id="Rectangle_1692" data-name="Rectangle 1692" width="0.945" height="0.945" transform="translate(59.899 14.485)" fill="#e6e6e6"/>
  <rect id="Rectangle_1693" data-name="Rectangle 1693" width="0.945" height="0.945" transform="translate(59.899 16.119)" fill="#e6e6e6"/>
  <rect id="Rectangle_1694" data-name="Rectangle 1694" width="8.456" height="8.456" transform="translate(81.663 9.096)" fill="#e6e6e6"/>
  <rect id="Rectangle_1695" data-name="Rectangle 1695" width="41.534" height="1.765" transform="translate(54.224)" fill="#507df0"/>
  <circle id="Ellipse_61" data-name="Ellipse 61" cx="0.354" cy="0.354" r="0.354" transform="translate(55.181 0.548)" fill="#fff"/>
  <circle id="Ellipse_62" data-name="Ellipse 62" cx="0.354" cy="0.354" r="0.354" transform="translate(56.422 0.548)" fill="#fff"/>
  <circle id="Ellipse_63" data-name="Ellipse 63" cx="0.354" cy="0.354" r="0.354" transform="translate(57.664 0.548)" fill="#fff"/>
  <rect id="Rectangle_1696" data-name="Rectangle 1696" width="10.135" height="5.236" transform="translate(113.454 49.799)" fill="#e6e6e6"/>
  <rect id="Rectangle_1697" data-name="Rectangle 1697" width="10.135" height="5.236" transform="translate(113.454 68.549)" fill="#e6e6e6"/>
  <circle id="Ellipse_64" data-name="Ellipse 64" cx="8.446" cy="8.446" r="8.446" transform="translate(110.076 53.346)" fill="#e6e6e6"/>
  <circle id="Ellipse_65" data-name="Ellipse 65" cx="6.588" cy="6.588" r="6.588" transform="translate(111.934 55.204)" fill="#fff"/>
  <rect id="Rectangle_1698" data-name="Rectangle 1698" width="5.109" height="0.292" transform="translate(116.364 59.987)" fill="#e2e2e2"/>
  <rect id="Rectangle_1699" data-name="Rectangle 1699" width="7.906" height="0.292" transform="translate(116.359 61.059)" fill="#507df0"/>
  <rect id="Rectangle_1700" data-name="Rectangle 1700" width="6.204" height="0.292" transform="translate(116.359 62.069)" fill="#e2e2e2"/>
  <rect id="Rectangle_1701" data-name="Rectangle 1701" width="3.649" height="0.292" transform="translate(116.359 63.079)" fill="#e2e2e2"/>
  <rect id="Rectangle_1702" data-name="Rectangle 1702" width="5.474" height="0.292" transform="translate(116.359 64.089)" fill="#e2e2e2"/>
  <rect id="Rectangle_1703" data-name="Rectangle 1703" width="0.584" height="0.584" transform="translate(114.047 59.903)" fill="#e2e2e2"/>
  <rect id="Rectangle_1704" data-name="Rectangle 1704" width="0.584" height="0.584" transform="translate(114.047 60.913)" fill="#507df0"/>
  <rect id="Rectangle_1705" data-name="Rectangle 1705" width="0.584" height="0.584" transform="translate(114.047 61.923)" fill="#e2e2e2"/>
  <rect id="Rectangle_1706" data-name="Rectangle 1706" width="0.584" height="0.584" transform="translate(114.047 62.933)" fill="#e2e2e2"/>
  <rect id="Rectangle_1707" data-name="Rectangle 1707" width="0.584" height="0.584" transform="translate(114.047 63.943)" fill="#e2e2e2"/>
</svg>
