<svg xmlns="http://www.w3.org/2000/svg" width="80" height="80" viewBox="0 0 80 80">
  <g id="Group_303" data-name="Group 303" transform="translate(-627 -785)">
    <path id="Path_526" data-name="Path 526" d="M40,0A40,40,0,1,1,0,40,40,40,0,0,1,40,0Z" transform="translate(627 785)" fill="rgba(87,234,194,0.25)"/>
    <path id="oil" d="M610.266,152.375v.992h2v-.992Zm-13.57,1a.5.5,0,0,0,.051,1h1.492v3.5h16v-3.5h1.492a.5.5,0,1,0,0-1H596.7Zm0,5a.5.5,0,0,0,.051,1H615.73a.5.5,0,1,0,0-1H596.7Zm1.543,1.5v17h16v-17Zm7.959,3.492h.051a.5.5,0,0,1,.355.158s.891.954,1.785,2.15a15.464,15.464,0,0,1,1.244,1.906,4.162,4.162,0,0,1,.605,1.9,4,4,0,0,1-8,0,4.162,4.162,0,0,1,.605-1.9,15.464,15.464,0,0,1,1.244-1.906c.894-1.2,1.785-2.15,1.785-2.15A.5.5,0,0,1,606.2,163.367Zm.041,1.281a18.7,18.7,0,0,0-1.35,1.625,14.648,14.648,0,0,0-1.162,1.779,3.616,3.616,0,0,0-.488,1.43,3,3,0,0,0,6,0,3.616,3.616,0,0,0-.488-1.43,14.643,14.643,0,0,0-1.162-1.779A18.7,18.7,0,0,0,606.238,164.648Zm-9.492,12.727a.5.5,0,1,0,0,1H615.73a.5.5,0,1,0,0-1Zm1.492,1.5v3.492h16v-3.492Zm-1.5,3.5a.5.5,0,1,0,.051,1H615.73a.5.5,0,1,0,0-1h-19Z" transform="translate(60.78 656.625)" fill="#57eac2" fill-rule="evenodd"/>
  </g>
</svg>
