<svg xmlns="http://www.w3.org/2000/svg" width="21" height="21" viewBox="0 0 21 21">
  <g id="date" transform="translate(-11066 -5490)">
    <rect id="Rectangle_1605" data-name="Rectangle 1605" width="21" height="21" transform="translate(11066 5490)" fill="#f3f3f3"/>
    <g id="calendar" transform="translate(11072 5496)">
      <g id="Group_226" data-name="Group 226">
        <g id="Group_225" data-name="Group 225">
          <path id="Path_489" data-name="Path 489" d="M7.945.7H7.523V0h-.7V.7H2.18V0h-.7V.7H1.055A1.056,1.056,0,0,0,0,1.758V7.945A1.056,1.056,0,0,0,1.055,9H7.945A1.056,1.056,0,0,0,9,7.945V1.758A1.056,1.056,0,0,0,7.945.7ZM8.3,7.945a.352.352,0,0,1-.352.352H1.055A.352.352,0,0,1,.7,7.945V3.3H8.3ZM8.3,2.6H.7V1.758a.352.352,0,0,1,.352-.352h.422v.7h.7v-.7H6.82v.7h.7v-.7h.422a.352.352,0,0,1,.352.352Z" fill="#8991a2"/>
        </g>
      </g>
      <g id="Group_228" data-name="Group 228" transform="translate(1.336 4.043)">
        <g id="Group_227" data-name="Group 227">
          <rect id="Rectangle_1607" data-name="Rectangle 1607" width="0.703" height="0.703" fill="#8991a2"/>
        </g>
      </g>
      <g id="Group_230" data-name="Group 230" transform="translate(2.742 4.043)">
        <g id="Group_229" data-name="Group 229">
          <rect id="Rectangle_1608" data-name="Rectangle 1608" width="0.703" height="0.703" fill="#8991a2"/>
        </g>
      </g>
      <g id="Group_232" data-name="Group 232" transform="translate(4.148 4.043)">
        <g id="Group_231" data-name="Group 231">
          <rect id="Rectangle_1609" data-name="Rectangle 1609" width="0.703" height="0.703" fill="#8991a2"/>
        </g>
      </g>
      <g id="Group_234" data-name="Group 234" transform="translate(5.555 4.043)">
        <g id="Group_233" data-name="Group 233">
          <rect id="Rectangle_1610" data-name="Rectangle 1610" width="0.703" height="0.703" fill="#8991a2"/>
        </g>
      </g>
      <g id="Group_236" data-name="Group 236" transform="translate(6.961 4.043)">
        <g id="Group_235" data-name="Group 235">
          <rect id="Rectangle_1611" data-name="Rectangle 1611" width="0.703" height="0.703" fill="#8991a2"/>
        </g>
      </g>
      <g id="Group_238" data-name="Group 238" transform="translate(1.336 5.449)">
        <g id="Group_237" data-name="Group 237">
          <rect id="Rectangle_1612" data-name="Rectangle 1612" width="0.703" height="0.703" fill="#8991a2"/>
        </g>
      </g>
      <g id="Group_240" data-name="Group 240" transform="translate(2.742 5.449)">
        <g id="Group_239" data-name="Group 239">
          <rect id="Rectangle_1613" data-name="Rectangle 1613" width="0.703" height="0.703" fill="#8991a2"/>
        </g>
      </g>
      <g id="Group_242" data-name="Group 242" transform="translate(4.148 5.449)">
        <g id="Group_241" data-name="Group 241">
          <rect id="Rectangle_1614" data-name="Rectangle 1614" width="0.703" height="0.703" fill="#8991a2"/>
        </g>
      </g>
      <g id="Group_244" data-name="Group 244" transform="translate(5.555 5.449)">
        <g id="Group_243" data-name="Group 243">
          <rect id="Rectangle_1615" data-name="Rectangle 1615" width="0.703" height="0.703" fill="#8991a2"/>
        </g>
      </g>
      <g id="Group_246" data-name="Group 246" transform="translate(1.336 6.855)">
        <g id="Group_245" data-name="Group 245">
          <rect id="Rectangle_1616" data-name="Rectangle 1616" width="0.703" height="0.703" fill="#8991a2"/>
        </g>
      </g>
      <g id="Group_248" data-name="Group 248" transform="translate(2.742 6.855)">
        <g id="Group_247" data-name="Group 247">
          <rect id="Rectangle_1617" data-name="Rectangle 1617" width="0.703" height="0.703" fill="#8991a2"/>
        </g>
      </g>
      <g id="Group_250" data-name="Group 250" transform="translate(4.148 6.855)">
        <g id="Group_249" data-name="Group 249">
          <rect id="Rectangle_1618" data-name="Rectangle 1618" width="0.703" height="0.703" fill="#8991a2"/>
        </g>
      </g>
      <g id="Group_252" data-name="Group 252" transform="translate(5.555 6.855)">
        <g id="Group_251" data-name="Group 251">
          <rect id="Rectangle_1619" data-name="Rectangle 1619" width="0.703" height="0.703" fill="#8991a2"/>
        </g>
      </g>
      <g id="Group_254" data-name="Group 254" transform="translate(6.961 5.449)">
        <g id="Group_253" data-name="Group 253">
          <rect id="Rectangle_1620" data-name="Rectangle 1620" width="0.703" height="0.703" fill="#8991a2"/>
        </g>
      </g>
    </g>
  </g>
</svg>
