<svg xmlns="http://www.w3.org/2000/svg" width="19.081" height="20" viewBox="0 0 19.081 20">
  <g id="attachment_add" transform="translate(-1.185 0.001)">
    <path id="Path_303" data-name="Path 303" d="M20.152,7.441a.387.387,0,0,0-.548,0L9.03,18.016a4.144,4.144,0,0,1-5.861-5.861L13.743,1.58a2.842,2.842,0,0,1,4.1.16,2.841,2.841,0,0,1,.16,4.1L8.068,15.773a1.425,1.425,0,1,1-2.016-2.016l6.729-6.729a.387.387,0,1,0-.548-.548L5.5,13.209A2.2,2.2,0,0,0,8.616,16.32l9.934-9.934a3.6,3.6,0,0,0-.16-5.194,3.6,3.6,0,0,0-5.194-.16L2.62,11.607a4.92,4.92,0,0,0,6.957,6.957L20.152,7.989A.387.387,0,0,0,20.152,7.441Z" transform="translate(0 0)" fill="#131d4a"/>
  </g>
</svg>
