<svg xmlns="http://www.w3.org/2000/svg" width="50" height="50" viewBox="0 0 50 50">
  <g id="inventory" transform="translate(-532 -186)">
    <path id="Path_481" data-name="Path 481" d="M32,88H43.29V98.484H32Zm0,0" transform="translate(503.226 106.871)" fill="#f0bc5e"/>
    <path id="Path_482" data-name="Path 482" d="M60.527,89.7l-2.183-2.183,1.14-1.14,1.043,1.043L65.6,82.344l1.14,1.14Zm0,0" transform="translate(479.538 111.957)"/>
    <path id="Path_483" data-name="Path 483" d="M47.713,4.849,38.9,3.087,35.256,19.293l-17.514-3.5V0H5.312L0,5.311V22.581H8.888L6.6,33.111a2.636,2.636,0,0,0-2.083,1.954L4.107,36.7a2.5,2.5,0,0,0,1.967,3.059l20.393,3.777.294-1.586L6.367,38.173a.883.883,0,0,1-.722-.868.872.872,0,0,1,.027-.214l.409-1.635a1.044,1.044,0,0,1,1.2-.758L28.4,38.921l.317-1.582-20.493-4.1,2.317-10.661h7.2V17.436l2.123.425L18.34,23.2l9.651,1.931,1.526-5.341L34.9,20.868,31.471,36.113l1.574.354L39.227,8.989,41,9.344,34.7,36.917l1.573.359,1.27-5.559,2.023.4-1.64,7.215,1.573.358,4.1-18.025-2.583-5.126L42.582,9.66l3.836.767a2.722,2.722,0,0,0,.558.057h.179a2.845,2.845,0,0,0,.558-5.635ZM4.839,2.753V4.839H2.754Zm11.29,18.215H1.613V6.452H6.452V1.613h9.677Zm6.687,1.482L20.37,21.96l1.082-3.783,2.446.489Zm4.032.806L24.4,22.767l1.082-3.783,2.446.489Zm13.073,7.293-2.02-.4,1.333-5.831,2.013.4Zm1.97-8.671L41.6,23.144l-2.011-.4.853-3.732ZM47.155,8.871h-.179a1.213,1.213,0,0,1-.242-.024L39.581,7.416l.548-2.439L47.4,6.431a1.232,1.232,0,0,1-.24,2.44Zm0,0" transform="translate(532 186)"/>
    <path id="Path_484" data-name="Path 484" d="M263.258,352a7.258,7.258,0,1,0,7.258,7.258A7.266,7.266,0,0,0,263.258,352Zm0,0" transform="translate(301.807 -130.516)" fill="#f0bc5e"/>
    <path id="Path_485" data-name="Path 485" d="M292.032,392.064a4.032,4.032,0,1,1,4.032-4.032A4.037,4.037,0,0,1,292.032,392.064Zm0-6.452a2.419,2.419,0,1,0,2.419,2.419A2.423,2.423,0,0,0,292.032,385.613Zm0,0" transform="translate(273.033 -159.29)"/>
  </g>
</svg>
