<svg xmlns="http://www.w3.org/2000/svg" width="61.767" height="43.066" viewBox="0 0 61.767 43.066">
  <g id="issue" transform="translate(-370 -189)">
    <path id="Path_457" data-name="Path 457" d="M14.892,36.313l-9-6.292-.171-.12L1.893,28.6V40.528l1,1.014H6.872v-.01h8.02Z" transform="translate(368.884 178.533)" fill="#656d78"/>
    <circle id="Ellipse_32" data-name="Ellipse 32" cx="1" cy="1" r="1" transform="translate(370.777 218.061)" fill="#656d78"/>
    <path id="Path_458" data-name="Path 458" d="M10.649,11.541a1,1,0,0,1,.706,1.225L6.947,29.2a1,1,0,0,1-1.226.7L1.857,28.862a1,1,0,0,1-.707-1.225l4.409-16.43a1,1,0,0,1,1.225-.7Z" transform="translate(368.884 178.533)" fill="#fc6e51"/>
    <path id="Path_459" data-name="Path 459" d="M40.9,32.541a5.081,5.081,0,0,0,1.988-.408v3.41h-4V32.133a5.153,5.153,0,0,0,2.01.408Z" transform="translate(368.884 178.533)" fill="#545c66"/>
    <circle id="Ellipse_33" data-name="Ellipse 33" cx="5" cy="5" r="5" transform="translate(404.777 203.075)" fill="#656d78"/>
    <path id="Path_460" data-name="Path 460" d="M51.882,45.533a2,2,0,1,1-2,2A2.006,2.006,0,0,1,51.882,45.533Z" transform="translate(368.884 178.533)" fill="#e6e9ed"/>
    <path id="Path_461" data-name="Path 461" d="M51.881,41.534l11,0,0,2.012-1,.989h-4.8l-.009.01a5.94,5.94,0,0,0-5.191-3.009Z" transform="translate(368.884 178.533)" fill="#545c66"/>
    <path id="Path_462" data-name="Path 462" d="M57.072,44.543a5.835,5.835,0,0,1,.809,2.991,6,6,0,0,1-12,0,5.351,5.351,0,0,1,.089-.989,5.987,5.987,0,0,1,11.1-2Zm-3.189,2.991a2,2,0,1,0-2,2A2.006,2.006,0,0,0,53.883,47.534Z" transform="translate(368.884 178.533)" fill="#656d78"/>
    <path id="Path_463" data-name="Path 463" d="M54.883,25.541l3,6-8,0,0-6Z" transform="translate(368.884 178.533)" fill="#5d9cec"/>
    <path id="Path_464" data-name="Path 464" d="M51.881,41.534a5.994,5.994,0,0,0-5.909,5.009l-.089-.011v-5l0-5.992,0-7.66a1.892,1.892,0,0,0,.019-.341,1.959,1.959,0,0,0-.019-.338l0-5.66h12l5,10,0,9.99Zm-2-9.991,8,0-3-6-5,0Z" transform="translate(368.884 178.533)" fill="#e6e9ed"/>
    <path id="Path_465" data-name="Path 465" d="M45.881,35.542l0,5.992-12.2,0,1.6-5.99h10.6Z" transform="translate(368.884 178.533)" fill="#aab2bd"/>
    <path id="Path_466" data-name="Path 466" d="M28.882,45.534a2,2,0,1,1-2,2A2.005,2.005,0,0,1,28.882,45.534Z" transform="translate(368.884 178.533)" fill="#e6e9ed"/>
    <path id="Path_467" data-name="Path 467" d="M34.883,47.534a6,6,0,0,1-12,0,5.386,5.386,0,0,1,.093-1,5.987,5.987,0,0,1,5.708-4.991h.4a5.987,5.987,0,0,1,5.71,4.99,5.5,5.5,0,0,1,.09,1Zm-4,0a2,2,0,1,0-2,2A2.005,2.005,0,0,0,30.882,47.533Z" transform="translate(368.884 178.533)" fill="#656d78"/>
    <g id="Group_196" data-name="Group 196" transform="translate(368.884 178.533)">
      <path id="Path_468" data-name="Path 468" d="M34.793,46.532a5.986,5.986,0,0,0-5.71-4.99,1.616,1.616,0,0,0-.2-.01h4.8l12.2,0v5l-11.08,0Z" fill="#ccd1d9"/>
      <path id="Path_469" data-name="Path 469" d="M15.092,41.543h13.59a5.988,5.988,0,0,0-5.708,4.991H20.8a5.986,5.986,0,0,0-5.712-4.991Z" fill="#ccd1d9"/>
      <path id="Path_470" data-name="Path 470" d="M6.872,41.542l7.819,0a5.973,5.973,0,0,0-5.709,4.99H7.872l-1-1Z" fill="#ccd1d9"/>
    </g>
    <path id="Path_471" data-name="Path 471" d="M14.892,45.533a2,2,0,1,1-2,2,2.006,2.006,0,0,1,2-2Z" transform="translate(368.884 178.533)" fill="#e6e9ed"/>
    <path id="Path_472" data-name="Path 472" d="M20.8,46.534a5.616,5.616,0,0,1,.089,1,6,6,0,1,1-12,0,5.208,5.208,0,0,1,.09-1,5.972,5.972,0,0,1,5.709-4.99h.4A5.986,5.986,0,0,1,20.8,46.534Zm-3.913,1a2,2,0,1,0-2,2A2.006,2.006,0,0,0,16.891,47.534Z" transform="translate(368.884 178.533)" fill="#656d78"/>
    <path id="Path_473" data-name="Path 473" d="M40.409,16.416,39.4,20.191,36.7,30.262l-1.421,5.28-1.6,5.99-18.362-4.92L22.31,10.531,39.7,15.193Z" transform="translate(368.884 178.533)" fill="#fc6e51"/>
    <path id="Path_474" data-name="Path 474" d="M22.31,10.531,15.321,36.612l-.429-.3-9-6.292-.171-.12,4.927-18.36Z" transform="translate(368.884 178.533)" fill="#e9573f"/>
    <path id="Path_475" data-name="Path 475" d="M51.883,35.539h-1a1,1,0,1,1,0-2h1a1,1,0,0,1,0,2Z" transform="translate(368.884 178.533)" fill="#ccd1d9"/>
    <path id="Path_476" data-name="Path 476" d="M42.9,39.539h-5a1,1,0,1,1,0-2h5a1,1,0,1,1,0,2Z" transform="translate(368.884 178.533)" fill="#ccd1d9"/>
    <path id="Path_477" data-name="Path 477" d="M8.883,37.538H3.894a1,1,0,1,1,0-2l4.99,0a1,1,0,0,1,0,2Z" transform="translate(368.884 178.533)" fill="#aab2bd"/>
    <path id="Path_478" data-name="Path 478" d="M8.883,33.537l-4.989,0a1,1,0,1,1,0-2l4.989,0a1,1,0,1,1,0,2Z" transform="translate(368.884 178.533)" fill="#aab2bd"/>
    <path id="Path_479" data-name="Path 479" d="M8.91,40.529a1,1,0,0,1-1-1v-9.51a1,1,0,1,1,2,0v9.509a1,1,0,0,1-1,1Z" transform="translate(368.884 178.533)" fill="#ccd1d9"/>
    <path id="Path_480" data-name="Path 480" d="M3.909,40.528a1,1,0,0,1-1-1V30.017a1,1,0,1,1,2,0V39.53A1,1,0,0,1,3.909,40.528Z" transform="translate(368.884 178.533)" fill="#ccd1d9"/>
    <circle id="Ellipse_34" data-name="Ellipse 34" cx="1" cy="1" r="1" transform="translate(429.767 221.075)" fill="#545c66"/>
    <circle id="Ellipse_35" data-name="Ellipse 35" cx="1" cy="1" r="1" transform="translate(407.33 193.692)" fill="#fc6e51"/>
    <circle id="Ellipse_36" data-name="Ellipse 36" cx="1" cy="1" r="1" transform="translate(375.756 223.066)" fill="#ccd1d9"/>
  </g>
</svg>
